<svg id="图层_1" data-name="图层 1" xmlns="http://www.w3.org/2000/svg" viewBox="0 0 545.87 415.78"><defs><style>.cls-1,.cls-2,.cls-3,.cls-4,.cls-5{fill:none;}.cls-1,.cls-2{stroke:#1f1920;stroke-width:2px;}.cls-1,.cls-10,.cls-11,.cls-12,.cls-13,.cls-14,.cls-3,.cls-4,.cls-5,.cls-6,.cls-7,.cls-8{stroke-linecap:round;}.cls-1,.cls-10,.cls-11,.cls-12,.cls-13,.cls-14,.cls-2,.cls-3,.cls-4,.cls-5,.cls-6,.cls-7,.cls-8{stroke-linejoin:round;}.cls-2{stroke-dashoffset:4px;stroke-dasharray:4 4;}.cls-3{stroke:#7f8080;stroke-dasharray:8 4 4 4;}.cls-4{stroke:#4388c8;}.cls-5{stroke:#747569;stroke-opacity:0.6;}.cls-6{fill:#6cba48;}.cls-10,.cls-11,.cls-12,.cls-13,.cls-14,.cls-6,.cls-7,.cls-8,.cls-9{fill-opacity:0.5;fill-rule:evenodd;}.cls-10,.cls-11,.cls-12,.cls-13,.cls-14,.cls-6,.cls-7,.cls-8{stroke:#427abf;stroke-opacity:0;stroke-width:3px;}.cls-7{fill:#c78cbc;}.cls-8,.cls-9{fill:#f5d021;}.cls-10{fill:#e88513;}.cls-11{fill:#2a6fb8;}.cls-12{fill:#50b88c;}.cls-13{fill:#dbb260;}.cls-14{fill:#efeeee;}.cls-15{opacity:0.99;}.cls-15,.cls-16{font-size:10px;fill:#231815;font-family:ZQKNLT-Regular, ZQKNLT;}</style></defs><path id="国界" class="cls-1" d="M37.57,320.87l-3.1-6.18,4.64-4.64-1.54-1.55,6.18-6.19h3.1v-3.09l1.54,1.55,4.64-3.1,1.55,4.64h6.19L65.41,293l7.73,1.55v-3.09L74.69,293,84,285.3l10.82-4.64V269.83l4.64-1.54-4.64-18.56-4.64-1.55,7.74-4.64,1.54,1.55,6.19-3.1h9.28l-3.1-6.18,7.74-18.56,7.73,4.64,13.92-1.55V204.88L152,198.69V192.5h9.28l-1.55,4.64h3.09v3.1l3.1,3.09,1.54-1.55,1.55,4.64,10.83,3.1,4.64,4.64L189.14,225,186,240.45l4.64,4.64,1.55-1.55,7.73,3.09h12.38l10.82,9.28,4.64-1.54-1.54,1.54,9.28,18.56h40.21L300.5,285.3l6.18-1.55,1.55,3.1,23.2-9.28H350l7.73-3.1,15.47-13.92-4.64-4.64,1.54-7.73,3.1-3.09,13.92,4.64,10.82-9.28,4.64,1.54,4.64-3.09,6.19-9.28h6.19l9.28-6.18h6.18L433.51,225l1.54-1.54,3.1,3.09,4.64-1.55-1.55-7.73L432,208l-4.64-1.55-6.19,6.19L418,209.52h-6.19l-3.09,3.09-4.64-6.19,3.09-1.54L415,183.22l9.28,4.64,6.18-6.18,7.74-1.55v-9.28l6.18-12.37,6.19-6.19V146.1L444.33,143l7.74-9.28,1.54,1.55,10.83-4.64h12.37l9.28,6.18,4.64-1.54,6.19,6.18,3.09,6.19-1.54,1.55,3.09,3.09L500,153.84l4.64,7.73-1.54,1.55,6.18,9.28L507.75,177h3.09l-1.55,4.64,3.1,4.64h7.73l12.37,9.28h3.1l3.09,6.18-1.55,4.64,4.64,6.19H548l18.56-9.28,9.28-1.55-3.09,3.1v9.28l-4.64,1.54,1.54,3.1-3.09,12.37-4.64,4.64-3.09,9.28-1.55,1.54L548,242l-6.19,6.19v23.2h-3.09l-3.09,3.09,1.54,1.55L531,269.83l-1.55,7.74h-3.09l-4.64,4.64h-6.19l1.55,4.64-3.1,3.09-7.73-1.55,1.55-1.54-4.64-1.55-1.55,4.64-7.73,7.73h-3.1l1.55,1.55-1.55-1.55L483,303.86M80.87,393.57l-3.09-6.19,1.55-1.55,3.09,3.1,3.09-3.1v-3.09l-4.64-4.64v-6.19l3.1-3.09-7.74-3.09v-9.28H67l-4.64-4.64H59.22l-3.09-3.1v-6.18l-12.38-3.1v-3.09l3.1,1.55M328.34,492.55l-3.1-3.09,1.55-4.64-7.73-1.55-4.64-4.64L302,487.91,299,484.82l-4.64,3.09-3.09-3.09h-3.1v3.09h-6.18v12.38h-3.1l-1.54-6.19-6.19,3.09L268,491h-6.19l-1.55-1.55,3.1-6.19-4.64-1.54-3.1-6.19v-3.09h-9.28l1.55-10.83,6.19-6.19h3.09V440l-3.09-3.1-1.55,1.55L251,430.69l-4.64-1.55-4.64,7.73-6.18-6.18h-6.19l-18.56,13.92H198.42l-1.55-6.19h-3.09l-1.55-4.64-4.64,1.55,1.55-1.55-13.92-1.55-3.1,9.28L169,438.42l1.55-4.64-17,1.55-3.09-3.1-4.64,1.55,1.55-1.55-3.1,3.1-1.54-4.64h-6.19l1.55-3.1-7.74-1.54-3.09-6.19-4.64,1.55L107.16,409h-3.09l-1.55,4.64L88.61,402.85H82.42l-1.55-9.28M337.62,495.65l-9.28-3.1m172.09,36v-6M505,470l2.28,6m2.29,16.86-1.52,6m7.63,44.65,4.57-2m11.44-19.85,3.06-5m9.91-15.88L547,493.8M547,471v6.95m4.58-24.81-2.29,6m-87.9,36.58-7.74,7.73M466,478.63l3.09-12.37" transform="translate(-32.97 -129.14)"/><path id="争议" class="cls-2" d="M46.85,337.89l3.09-3.1-3.09-3.09v-9.28l-9.28-1.55" transform="translate(-32.97 -129.14)"/><path id="港澳" class="cls-3" d="M387.11,489.46h0m6.18-3.09-3.09,3.09,3.09,1.55v-4.64" transform="translate(-32.97 -129.14)"/><path id="海洋" class="cls-4" d="M391.75,487.91l-3.1-3.09v3.09L384,492.55,382.47,491v3.09h-9.28l-3.1,3.09-12.37,3.1,3.1,6.18-3.1,3.09h-3.09l-1.55-13.91H337.62m21.65,4.64h0m0,0,1.55,1.54h-3.1l1.55-1.54m27.84-10.83h0m4.64-1.55h0m0,0h0m0,0h0m51-41.76-3.1,6.19v6.19H436.6l1.55,1.54h-3.1v3.1l-4.64,4.64h-3.09v3.09l-6.19,6.19H418l-7.73,7.73-4.64-1.55v3.1l-7.74-1.55-3.09,1.55,1.55,1.54h-3.1l1.55,1.55-3.09-1.55m51-41.76h0m17-23.2-1.55-1.54v9.28l-3.09,3.09-1.55-1.55v3.1L449,438.42l1.55,1.55-7.73,6.18m13.92-103.62-4.64,1.54-3.1,6.19-4.64-1.55,1.55,1.55-9.28,12.37,10.83,7.74,4.64,10.82v6.19h3.09l1.55,4.64h3.09l1.55,4.64-9.28-1.55,3.09,3.1m0,0,4.64,1.54,3.09,7.74h-9.28l7.74,7.73v6.19m-4.64-78.88h0m0,0h0m7.73-29.39-10.83,7.73v-3.09l4.64-1.55-3.09-6.18,7.73-7.74-3.09-6.18h-6.19L449,300.77v3.09L439.69,307l-1.54,4.64-4.64,4.64,1.54-1.54-4.64,1.54,1.55,1.55-6.19-3.09-3.09,6.18V324h3.09l4.64,4.64,4.64-1.55,3.1,3.09-3.1,3.1,1.55,4.64h6.19v-3.1l6.18-4.64h3.1l4.64,4.64,4.64-1.54,6.18,3.09L466,341l-4.64-1.55-4.64,3.1m0,0,1.54-1.55-1.54,1.55M459.8,423h0m0,0h0m0,0h0m1.55-1.54L459.8,423m1.55-1.54h0m1.54-7.74h0m0,0h0m0,0h0m1.55,0h-1.55m0,0-1.54-1.54,3.09,1.54m0,0h0m0-3.09h0m0,0h0m0-97.44h0M483,303.86l-4.64,4.64h-6.19l-7.73,4.64m1.55,92.8h0m0,0h0m1.54,0h0M345.35,495.65h0m3.09,6.18h0m3.1,9.28h0m154.23,9.48,2.29-1-2.29,1m-154.23,7.53-7.74-4.64V517.3l6.19-6.19,1.55,1.55,9.28-3.1,4.64,3.1-4.64,9.28-9.28,6.18m155.75-10.51h0m-148-12.69h0m0-4.63h0m150.31,17.32.77,1-.77-1m0-1,.77-1-.77,1M360.82,500.29h0m0,7.73h0m149.53,8.6h0M360.82,501.83h0M513.4,472h0m.76-7.94h0m0,49.61h0m0-45.64h0m0,41.67h0m.76,9.93h0m0-2h0m0-49.61h0m0,0h0m0,49.61h0m0-48.62h0m0,43.66.77,1-.77-1m0-45.65h0m0,51.6h0m0-51.6h0m.77,3-.77-1,.77,1m0-2h0m0,2h0m.76,46.64h0m0-47.63h0m0,71.45h0m.76-27.79.76-1-.76,1m0-1h0m0,28.78h0m0-74.43h0m0,6.95.76-1-.76,1m0-7.94h0m.76,46.64h0m0,28.78h0m0-28.78h0m0,18.85h0M518,465h0m0,1h0m0,3h0M377.83,495.65h0m140.91,33.87h0m0-58.55.76-1-.76,1m0-3h0m0,39.69h0m0,22.82h0m0-1h0m0-17.86.76,1-.76-1m0,16.87h0m0,5h0M377.83,495.65h0m140.91,34.86.76,1-.76-1m.76,1h0m0-63.5h0m0,65.49h0M379.37,494.1l-1.54,1.55,1.54-1.55M519.5,469h0m0-2h0M380.92,495.65l-1.55-1.55,1.55,1.55m139.34,16h0m-139.34-16h0M520.26,466h0m0,51.6h0m0-9.92h0m0,0h0m0,26.79.77-1-.77,1m.77-19.84h0m-138.56,1.11h0M521,507.69h0M382.47,494.1h0m1.54-1.55h0m0,1.55h0m0-1.55h0m137.78,34h0m0-9.92h0m0,0,.76-1-.76,1M387.11,491h0m136.2,12.71h0m0,18.85h0m0-10.91.77-1-.77,1m.77-2h0M388.65,492.55h0M524.08,473h0M388.65,492.55h0m0,0h0m0,0h0M524.08,518.6l.76,1-.76-1m0,2h0M390.2,487.91h0m0,3.1h0m0,27.83h0m0-29.38h0M524.84,505.7h0m0-31.75h0m0-1h0m0,43.66h0m0,3,3-2-3,2m0-7.94h0m0-39.69h0m0,39.69.76,1-.76-1m0,0,.76,1-.76-1m0-37.71h0m.76,31.75h0m0-5h0m0,15.88h0m0-45.65h0M391.75,489.46h0m0,3.09h0M525.6,508.68l.77,1-.77-1M393.29,489.46h0m0,3.09h0m133.08,20.1h0m0-41.68h0M393.29,492.55h0M526.37,474h0m0,29.77h0m0,3h0M393.29,491h0M526.37,473h0m0,33.74h0m0-8.93h0m-133.08-11.4h0m133.08,13.38h0M393.29,489.46h0m133.84,15.25h0m0-3h0m0-5h0m0-25.8.76-1-.76,1m0,34.73h0m0-32.74h0m0,33.74h0m0-6h0m0,1,.76-1-.76,1m0,4h0m0,10.92.76-1-.76,1m.76-10.92h0m0,0h0m0-7.93h0m0,7.93h0m0,6h0m0-38.7h0m0,32.74h0m0-7.93h0m-131.5-9.86h0m131.5,31.69h0m0-4h0m0-11.91h0m0-7,.76,1-.76-1m.76,3h0m0-29.77h0m0,36.72-.76,1,.76-1m0,8.93h0m0-16.87h0m0-27.79h0m0,29.77h0m0,20.84h0m0-5,.77,1-.77-1m.77-15.88h0m0-29.77h0m0,48.63h0m0-19.85h0m.76,14.89.76,1-.76-1m.76-1h0m0-8.93h0m0-21.83h0m.76,25.8h0m0-3h0m0,8.94h0m.77-11.91h0m0,0h0m0,0h0m.76,0h0m0,0h0m0,4h0m0-6h0m-126,1.09h0m1.55-1.54h0M534,509.67h0m0-5h0m.77,3h0m0,4h0m.76-5h0m.76,4h0m0-4h0m0-3h0m0,3h0m.76-4h0M537,469h0m0,27.78h0M415,504.92h0M537,510.67h0M415,503.38l1.54,1.54L415,503.38m122.86-.65h0M418,478.63h0m121.29,23.11h0m0,0h0m0,2h0m0-2h0m0-2h0m.77,5h0m0-5h0m.76,2h0m.76-2h0m0-23.81h0m0,24.8h0m-114.3-31.39h0m0,0h0m1.55,0h0m1.54-1.54-1.54,1.54,1.54-1.54M432,316.23h0m1.55,0h0m0,0h0m4.64,164h0m1.54-18.56h0m0,17h0m0-1.54h0m0-1.55h0m0-18.56h0m1.55-4.64h0m0,24.75h0m0-20.11h0m0,0h0m0-9.28h0m0,12.37h0m0,0h0m0-12.37h0m1.55,9.28h0m0-4.64h0m0,1.55h0m1.54,24.74h0m0-27.84h0m0-1.54h0m0-1.55h0m0,0h0m0-1.55h0m1.55-92.8h0m0,91.26h0m1.55,44.85h0m0-44.85h0m0-112.91h0m0,117.55h0M449,328.61h0m1.55,163.94-4.64-6.18-1.55-10.83,7.74-9.28v-3.09l6.18-3.1,3.1,3.1-6.19,21.65-4.64,7.73m0-163.94h0m0,0h0m0-1.55h0m0-26.29h0m0,24.74h0m1.55-1.54h0m0,0h0m0,21.65h0m1.54,88.16h0m0,6.19h0m0-6.19h0m0,0h0m3.1-38.67,4.64,3.1h-3.1l-1.54-3.1m0-7.73h0m0,97.44h0m0,6.19,1.54,1.54L456.71,491m1.54,1.54h0m0-94.34h0m0,24.74h0m1.55,3.1h0m0-26.3-1.55-1.54,1.55,1.54m0,0h0m0,13.92h0m0,12.38h0m0,0h0m0,3.09h0m0-17,1.55,1.54-1.55-1.54m0-10.83h0m0,27.84h0m1.55,29.39h0m0,6.18h0m0-52.58h0m0-10.83h0m0,9.28h0m0,10.83h0m0-4.64h0m0-3.1h0m0-1.54h0m0-4.64h0m1.54,6.18h0m0,0h0m0,0h0m0,0h0m0-1.54h0m0-1.55h0m0,0h0m0,9.28h0m0-3.09-1.54-1.55,1.54,1.55m0,0h0m0-3.1h0m1.55,1.55h0m0,0h0m0,1.55-1.55-1.55,1.55,1.55m0-3.1,1.55,1.55-1.55-1.55m0-99h0m0,99h0m0-4.64h0m1.55,0h0m0-94.34h0m0,0h0m0,92.8h0m1.54-92.8h0m0,97.44h0m0-94.35h0m0,88.16h0m1.55,0h0m1.55-94.35h0m0,1.55h0m1.54,4.64h0m1.55,137.65,1.55,1.55h-3.1l1.55-1.55m1.55,0h0m0-1.54,1.54,1.54-1.54-1.54m0,3.09h0m0-1.55h0m0,1.55h0m1.54-148.48h0M483,453.89l1.55,1.54L483,453.89" transform="translate(-32.97 -129.14)"/><path id="省界" class="cls-5" d="M176.76,350.26l-3.09-3.09-17-1.55-9.28,3.09-6.19,6.19-4.64-1.55L128.82,358,118,356.45v-3.1l-12.37,6.19-9.28-3.09-4.64,4.64v3.09l-3.09,3.09H82.42L84,368.82m163.94,18.56h-3.09v3.09L240.18,392l1.54,1.55h-3.09v3.09l-3.09-3.09v3.09H230.9l-3.1-6.19L226.26,392v-3.09l-6.19-3.1-6.19,3.1-17-4.64-3.09-3.1H184.5L178.31,375l1.55-1.55h-3.1v-23.2m24.75-34-20.11,6.19v3.09h3.1v6.19l6.18,4.64v3.09L186,341v3.09h3.1v6.19l-9.28-3.09v3.09h-3.1m106.72,26.29-1.54,1.55V375l-1.55,1.54-6.19-6.18h12.38l1.54-1.55L285,362.63l3.09-6.18,4.64-1.55-1.54,1.55,3.09-6.19-4.64-10.83,1.55-1.54L285,331.7l-7.73-1.55-7.74-7.73v3.09L264.92,324l-7.73-7.74-6.19,3.1-7.73-4.64-3.09,3.09,1.54,4.64h-3.09v3.09L234,327.06,230.9,324h-9.28l-3.1-4.64-3.09,1.54-9.28-6.18-4.64,1.54m34-41.76-3.1,3.1,1.55,6.18H230.9l-4.64,4.64V285.3h-3.1l-10.82,12.37-6.19,1.55L200,314.69l1.55,1.54m103.63,18.56-7.74-4.64V324l7.74-6.19-3.1-6.19-7.73,4.64-7.73-1.54v3.09l-6.19,3.09-4.64-4.64v-3.09L263.38,307l6.18-4.64L268,296.13l-3.1-1.55-7.73,4.64h-4.64v-4.64l-6.19-4.64,3.1-3.09-6.19-13.92m17,148.48-1.54-15.47-3.1-4.64,1.55-1.55-3.09-3.09-1.55-7.73-4.64-1.55m35.57-10.83-1.54,4.64-4.64-1.54,1.54,4.64-3.09,3.09h-6.19L268,382.74l-3.1,3.09-4.64-4.64h-3.09l-3.09-9.28-4.64-1.54L244.82,375l3.09,3.09-3.09,6.19,3.09,3.09M251,432.23l6.19-1.54-1.55-4.64h3.1l1.54-4.64m54.14,15.46-1.55-4.64-6.19,3.1-1.54-7.74H302v3.1l-4.64,1.54,1.55,4.64-6.19,3.1,1.55,10.82-4.64-1.54-6.19,3.09-9.28-18.56-3.09,3.09L268,433.78l1.54-1.55-3.09-6.18h-3.09l-1.55,4.64-1.55-1.55v-7.73M316,384.29l-3.09,3.09-4.64-1.55-3.09-3.09v-6.19L299,373.46,297.4,375l-3.09-6.19h-3.09v3.09l-4.64,1.55,3.09,3.09L285,381.19l-1.55-4.64m51-46.4L325.24,324l4.64-7.74-3.09-3.09-7.73,6.19-1.55,12.37-12.37,3.09m0,0h3.09v3.1l1.55-1.55,4.64,4.64v12.37l1.54-1.54,7.74,7.73v-6.19l4.64-1.54v-3.1l-4.64-4.64,3.09-3.09-1.55-1.55,6.19-1.54m-17,99V440l-7.74-1.55L299,443.06l1.55,4.64,7.73,1.55-3.09,6.18,4.64,4.64-1.55,6.19m0,0v3.09l1.55-1.54,4.64,4.64L316,470.9l6.19,3.09v3.1L316,480.18m35.58-26.29-4.64,1.54v3.1L345.35,457l-7.73,4.64h-3.1L329.88,457v3.09l-9.28,6.19L316,463.17l-7.73,3.09m15.47-37.12-3.1-3.09-3.09,3.09,6.19,4.64-3.1,3.09h-6.18m17-99V341l12.37,6.19v9.28l-6.18,3.09L336.07,358l-1.55,4.64-7.73-1.54-3.09,6.18h3.09l-3.09,6.19,1.54,1.55-4.64,1.54v6.19L316,384.29m26.3,6.18L337.62,392,333,387.38l-1.55,1.55-3.09-3.1-4.64,1.55-3.1-3.09H316m34,44.85-3.09,3.09-6.19-6.18V423l-4.64,1.55v-3.09H333v3.09h-3.1l-4.64,4.64v-3.09l-1.54,3.09m0,0v-3.09l-9.28-6.19v-3.09l4.64-1.55-3.1-3.09,3.1-3.1,3.09,3.1,4.64-1.55v3.09l3.09-1.54,4.64-4.64L333,405.94l6.18-3.09,3.1-12.38m-10.83-52.58,3.09-7.74m30.94-17v-3.09l-4.64,4.64-3.1-3.1v3.1h-3.09l-1.55,4.64L346.9,324l1.54,4.64h-3.09v3.09l-4.64,1.55-6.19-3.1m7.74,60.32,9.28,6.19m0,0,4.64,1.55,1.54,4.64L350,409l-4.64-1.54-4.64,7.73h3.09l3.1,3.09-1.55,1.55h3.09V423m0,0,1.55,6.19M390.2,423l-3.09-6.18-4.64,3.09-1.55-4.64-3.09,3.09-6.19-4.64-1.55,1.55-6.18-3.09-4.64,4.64-4.64-1.55L348.44,423m3.1,30.94L350,441.51l-4.64,1.55,6.19-6.19L350,429.14m23.2,37.12h-3.1l-1.54-4.64-3.09,3.09-1.55-1.54,4.64-7.74L367,450.79h-3.09l1.55-1.54-7.74,4.64h-6.18m12.37-74.24H351.54l3.09,3.09-1.55,1.55,4.64,1.54-6.18,3.1v7.73m3.09,100.53h-1.55m1.55,0-1.55-1.54,15.47-12.38v-6.18l4.64-4.64v-6.19m-18.56,43.3h1.55m0,0h3.09m0-143.83V341l3.09-6.19-1.54-7.73,3.09-3.09v-6.19l3.09-3.09-1.54-1.55m-6.19,52.59,1.55,6.18,4.64,4.64-1.55,3.1m-4.64-13.92,13.92-4.64V358l7.73,1.55,6.19-3.09,1.54-9.28M359.27,508h1.55m41.75-108.27-10.82-4.64-3.1-6.18H373.19l-9.28-9.28m1.55,1.54h0m26.29-83.52-4.64,4.64h-9.28L373.19,307v3.1l-7.73,3.09m7.73,153.12,1.54-4.64,6.19,3.09,3.09-6.18h6.19m13.92-109.82-4.64,1.55-10.83-3.09m0,0-1.54-4.64,4.64-10.83-4.64-10.83,4.64-4.64h3.09l1.55-4.64L394.84,307l-4.64-1.54,4.64-3.1-3.09-4.64m18.56,117.55h-6.19l-6.19,3.09,1.55,1.55h-6.19L390.2,423m0,35.58,3.09-6.19H390.2V440h-3.09v-3.1l6.18-6.18L390.2,423m0,35.58,7.73,1.54-6.18,6.19,1.54,1.55h6.19l3.09-3.1,3.1,3.1,1.54-4.64M436.6,289.94l-1.55,1.55-7.73-4.64,1.55-4.64-4.64-7.74-6.19,3.1L415,283.75h-9.28L401,288.39l-4.64-7.73-6.19,9.28,1.55,7.73m18.56,68.06v3.09h3.09l1.55,4.64L410.31,375l-6.19-3.1,1.55,4.64h-3.1l-3.09,6.19,1.55,4.64h6.18l1.55,4.64-6.19,7.73m7.74,15.47-3.1-6.19,1.55-4.64-6.19-4.64m23.2-74.24-4.64,4.64H415l-4.64,6.19-1.55-1.55v3.1l-6.19,6.18,1.55,4.64m6.19,17h-6.19v-3.1l-6.19-3.09,10.83-9.28-6.19,3.09,1.55-4.64m3.09,114.46,3.1-9.28,4.64-4.64-1.55-4.64,6.19-3.1L418,436.87l12.37-6.18m-10.82,46.4-3.1-3.1v-6.18l-9.28-4.64m20.11-43.31-7.73-4.64-3.1,3.09-3.09-6.18v3.09h-3.09m1.54-49.49h-1.54m27.84-4.64-1.55-1.55-9.28,9.28-1.55-4.64-6.18,3.09-3.1-6.18-4.64,1.54v3.1m29.39,35.57h-6.19L428.87,392l4.64-4.64,1.54,1.55,1.55-4.64-1.55-1.55-6.18,3.09-1.55-6.18-1.55,1.54,1.55-4.64-15.47-10.82m9.28-61.87v-6.19H418L413.4,293v3.1l-1.55-1.55,1.55,1.55h-3.09v3.09l-4.64,1.55,1.54,1.54-3.09,6.19,3.09,3.09,9.28-1.54m6.19,10.82L418,322.42,415,319.33l1.54-9.28m0,0h0m0,0h3.1v-4.64m0,0L415,307l1.54,3.1m3.1,167v1.54m1.54-174.77-1.54,1.55m1.54,173.22v1.55m0-176.32,3.1,3.09h-3.1l3.1,4.64,1.54-1.54v4.64m1.55,105.17,6.19-3.09v-6.19h3.09l1.55-4.64,1.54,1.55,1.55-6.19m-13.92,18.56-1.55,1.55,4.64,4.64v4.64m17,12.37V440h-6.19v-3.1l-3.09,3.1-4.64-1.55v-6.19l-3.1-1.54m6.19-140.75v-9.28l3.09-3.09,4.64,7.73L456.71,276l1.54,1.55,3.1-3.1,10.82-1.54,4.64-6.19m-34,38.67-3.1-6.19-6.18-3.09,3.09-6.19m15.47,112.91-3.1,3.09-7.73-4.64m9.28,41.76h0m0-119.09h3.09m7.74,72.69-7.74-1.55,1.55,1.55-3.09,6.19m3.09,3.09h-3.09v-3.09m3.09,3.09h1.55m17-184L470.63,225l-6.19-9.28,4.64-4.64h3.09V208h3.1l6.18-7.73v3.09h3.1L483,201.78l3.09-9.28,4.64-1.54-1.54-7.74,6.18-9.28,1.55-7.73-6.19-7.73h-3.09l1.55,1.54-4.64,3.1H472.17l-4.64-6.19,1.55-7.73-6.19-3.1-3.09,3.1-4.64-4.64,4.64-7.74-3.09-3.09m1.54,272.21h0m1.55,0h1.55m0,0,1.54-1.55m1.55,0H466m1.54,0h0m75.79-139.2-7.73-1.54v-6.19l-12.38,6.19L518.57,259v-6.19h-3.09l-1.55,4.64-4.64-4.64,1.55-1.55-6.19-3.09,1.55-1.55-3.09-3.09-4.64,1.55-4.64-4.64H481.45l-3.09-4.64v-6.19l-6.19,1.55m0,0-1.54-4.64,4.64-1.55-1.55-3.09m-1.55,9.28-4.64,4.64,1.55,1.55-3.09-3.1-7.74,1.55,4.64,4.64v12.37l3.1,3.09,6.18-3.09-1.54,1.55,6.18,12.37m-3.09-44.85-1.55-1.55,1.55,1.55m0,0h0m0,0h0m3.09,44.85,1.55-1.55,4.64,4.64v3.1l3.09-3.1,6.19,12.38-1.55,4.64,3.1,3.09v6.19M319.06,356.45h0m32.48,89.7h0m29.38-30.93h0" transform="translate(-32.97 -129.14)"/><path id="北京市" class="cls-6" d="M421.13,299.22l1.55-1.55h-6.19L415,293l-3.1,3.1,1.55,1.54-7.73,3.1,1.54,1.54-3.09,6.19,3.09,3.09h6.19l3.09-3.09L415,307l6.18-3.09Z" transform="translate(-32.97 -129.14)"/><path id="天津市" class="cls-6" d="M424.23,313.14l1.54-1.55L421.13,307h3.1l-3.1-3.09L418,307l1.55,1.55L415,311.59v9.28l7.73,1.55v-3.09l3.09-1.55Zm0,0Z" transform="translate(-32.97 -129.14)"/><path id="河北省" class="cls-6" d="M421.13,297.67l-1.54,4.64,4.64,4.64h-3.1l7.74,10.83H432l-1.55-1.55h3.1l9.28-10.82-3.1-6.19-6.18-3.09,3.09-6.19-1.55,1.55-7.73-4.64,1.55-4.64-4.64-7.74-6.19,3.1L415,283.75h-9.28L401,288.39l-4.64-7.73-3.1,3.09L390.2,293l3.09,9.28h3.1l-4.64,3.1-1.55-1.55,4.64,4.64v3.09l1.55-1.54-1.55,4.64-6.19,3.09,1.55,1.55-3.09,6.18,4.64,4.64v3.1l-3.1,9.28h-3.09l4.64,4.64,12.37,3.09v-6.19l6.19-7.73,17-10.83-3.09-3.09L415,320.87l1.54-10.82H404.12V307l4.64-4.64-1.55-1.54,6.19-3.1-1.55-1.54L415,293l1.54,4.64Zm-1.54,7.74L415,307l3.09,3.1Zm4.64,7.73Zm9.28,3.09Z" transform="translate(-32.97 -129.14)"/><path id="山西省" class="cls-6" d="M359.27,365.73l13.92-4.64V358l6.18,1.55,7.74-4.64V342.53l4.64-7.74-4.64-12.37,3.09-3.09-1.55-1.55,4.64-1.55,3.1-6.18-1.55,1.54V308.5l-4.64-4.64,1.55,1.55,3.09-3.1-1.55-4.64-3.09,3.1-1.55-1.55-1.54,3.09h-9.28L373.19,307v3.1h-3.1l-6.18,7.73,1.55,1.55-4.64,7.73V354.9l-3.1,10.83Z" transform="translate(-32.97 -129.14)"/><path id="内蒙古自治区" class="cls-6" d="M243.27,272.93l6.19,13.92-3.1,1.54,6.19,10.83h4.64l1.55-3.09,1.54,1.54,4.64-3.09,3.1,1.55,1.54,6.18L264.92,307l10.83,6.19,3.09,6.19,6.19,1.54,1.55-3.09-3.1-1.55h9.28l9.28-4.64,1.55,1.55,1.55,3.09L297.4,324v6.18h3.1l3.09,4.64,15.47-4.64v-9.28l7.73-7.73,3.09,3.09-4.64,9.28,7.74,1.55,6.18,6.19h3.1l4.64-4.64,1.54-6.19,9.28-9.28,4.64,1.55,3.1-4.64v3.09h3.09v-3.09h3.09l4.64-7.74,3.09,1.55,9.28-3.09,3.1-3.1-1.55-7.73,6.19-9.28,4.64,7.73,4.64-4.64h7.73l3.09-6.18,7.74-1.55,3.09,3.09-1.55,1.55,3.1,3.09v6.19l7.73,1.55,3.09-12.38,4.64,4.64v3.1l6.19-7.74L466,272.93h6.18l4.64-4.64-4.64-4.64h3.1l-1.55-7.74-3.09-3.09L466,255.91l-3.1-3.09V242l-1.54-4.63h-3.1l1.55-4.64,3.09,3.09h6.19l3.09-6.19L470.63,225l1.54,1.55,3.1-3.09-3.1-3.1,1.55,1.55L470.63,225l-6.19-9.28,4.64-4.64h3.09V208h3.1l6.18-7.73v3.09h3.1L483,201.78l3.09-9.28,4.64-1.54-1.54-7.74,6.18-9.28,1.55-7.73-6.19-7.73h-3.09l1.55,1.54-4.64,3.1H472.17l-4.64-6.19,1.55-7.73-6.19-3.1-3.09,3.1-4.64-4.64,4.64-7.74-6.19-3.09-9.28,7.73v3.1h6.19v9.28l-6.19,3.09-1.54,7.73-6.19,9.28,1.55,4.64-13.92,9.28L415,183.22l-6.19,12.38-1.55,9.28-3.09,1.54,4.64,6.19,3.09-3.09H418l3.09,3.09,3.1-4.64h6.18l10.83,9.28,1.55,6.19-3.1,3.09-6.18-3.09-12.38,3.09v3.09l-4.64-1.54-7.73,10.82L402.57,242l-4.64-1.54-10.82,9.28-9.28-4.64-6.19,1.54-3.09,6.19,4.64,7.73-3.1,4.64H367l-15.46,12.38H331.43l-23.2,9.28v-3.1l-4.64,1.55-17-4.64-3.1-4.64H258.74Z" transform="translate(-32.97 -129.14)"/><path id="辽宁省" class="cls-7" d="M475.27,308.5l6.18-1.55,6.19-7.73,6.19-3.09v-6.19l-3.1-3.09v-6.19l-4.64-10.83-3.09,3.1v-3.1l-4.64-4.64-3.09,6.19-1.55-1.55-4.64,4.64-4.64-1.54-4.64,4.64L458.25,276l-7.73,3.09-6.19,6.19-4.64-7.73-3.09,3.09,1.55,7.73-4.64,7.74,6.18,3.09,3.1,6.19h3.09l4.64-4.64v-3.1h3.09l-1.54-1.54,10.82,1.54-1.54,7.74L456.71,307l-1.55,4.64,3.09,3.1-4.64,4.64,7.74-1.55-1.55-1.55,1.55,1.55,4.64-6.19Zm-7.74,6.19L466,313.14Zm-3.09,0Zm3.09,0Zm0,1.54Zm3.1-4.64Zm-4.64,3.1Zm-15.47-13.92Zm20.11,12.37v0Zm1.54,4.64v0Zm4.64-9.28Z" transform="translate(-32.97 -129.14)"/><path id="吉林省" class="cls-7" d="M527.85,277.57l3.1-6.19H534l3.09,6.19-1.54-4.64h3.09l4.64-6.19-4.64-1.55L534,257.46l-12.37,6.19L517,252.82l-1.55,4.64h-3.09l-3.1-4.64,1.55-1.55h-3.09l-4.64-7.73-4.64,1.55-10.83-6.19L483,240.45l-4.64-4.64,1.55-3.09-3.1-3.1-4.64,1.55-4.64,4.64,1.55,1.55-3.09-3.1H459.8l-1.55,3.1h3.1l3.09,18.55,6.19-3.09,4.64,7.73v3.1h-3.1L483,269.83v3.1l3.09-3.1,4.64,10.83v6.19l3.1,3.09v6.19h3.09l6.19-10.83h3.09v3.09l9.28,1.55,1.55-1.55-3.1-6.18h9.28l1.55-4.64Z" transform="translate(-32.97 -129.14)"/><path id="黑龙江省" class="cls-7" d="M475.27,231.17l1.54-1.55,3.1,3.1v6.18h7.73l9.28,6.19,4.64-1.55,4.64,3.09-1.55,1.55,6.19,3.09-1.55,1.55,4.64,4.64v-3.09l4.64-1.55,3.1,10.83L534,257.46l1.55,4.64,6.18,3.09,1.55-7.73-3.09-9.28,9.28-6.19,7.73,4.64,1.55-1.54,3.09-9.28,4.64-4.64,3.09-12.37-1.54-1.55,6.18-6.19L571.16,208l6.19-6.19h-6.19l-18.56,9.28-10.83,1.55-4.64-6.19,1.55-4.64-3.09-6.18h-3.1l-6.18-7.74-1.55,1.55-3.09-3.09L517,187.86l-6.19-3.09v-6.19l-3.09-3.09,1.54-1.55-4.64-7.73V160l-3.09-3.09v-6.19l-4.64-9.28-6.19-6.18-4.64,1.54-7.73-6.18H464.44l-6.19,3.09,1.55,4.64-6.19,6.19,4.64,1.54v3.1l6.19-3.1,3.09,3.1,3.1,13.92h13.92l4.64-4.64,4.64,3.09,3.09,6.19-7.73,13.92,1.54,7.73-6.18,6.19v9.28L483,206.42l-1.55-4.64-17,13.92,6.19,9.28,3.09-3.09-1.55-1.55,3.1,3.1-3.1,3.09L470.63,225v3.1Z" transform="translate(-32.97 -129.14)"/><path id="上海市" class="cls-8" d="M452.07,402.85l1.54,3.09h7.74v-3.09l-4.64-4.64h-3.1Zm9.28-6.19-7.74-1.55,3.1,3.1h4.64Zm-1.55,3.09-1.55-1.54Zm0,0,3.09,1.55Zm-1.55-1.54Zm3.1,3.09Zm-1.55,0h0Z" transform="translate(-32.97 -129.14)"/><path id="江苏省" class="cls-8" d="M419.59,365.73,415,361.09l-3.1,3.09,15.47,12.37-1.55,4.64,1.55-1.54,3.09,6.18h3.1v-3.09l3.09,3.09-1.55,3.1-1.54-1.55-3.1,3.09,4.64,10.83,1.55-1.55L449,405.94l4.64-4.64v-6.19l7.74,1.55L459.8,392h-3.09v-3.09l-4.64-1.55v-6.19l-4.64-10.82-6.19-3.1-4.64-4.64v-3.09l-9.28,9.28-1.55-4.64-3.09,3.09Z" transform="translate(-32.97 -129.14)"/><path id="浙江省" class="cls-8" d="M430.41,430.69h3.1v7.73l4.64,1.55,3.09-3.1V440h6.19v3.09l3.09-7.73h3.09l-1.54-1.55,6.18-3.09v-9.28h3.1v-6.19l-9.28-12.37-3.1,3.09-7.73-4.64-1.55,6.19-1.54-1.55V409l-4.64,1.55v6.19l-6.19,4.64Zm32.48-17,1.55-1.54h-3.09Zm0-1.54Zm0,4.64Zm1.55-10.83h0Zm-1.55,4.64Zm1.55,0Zm-3.09,10.83Zm3.09-6.19,1.55-1.55Zm0-6.19Zm-4.64,17Zm4.64-10.83ZM459.8,423Zm-4.64,13.92Zm6.19-30.93,1.54,1.55Zm-1.55,23.2Zm3.09-12.37Zm3.1-3.1Zm0-6.18Zm-6.19,21.65Zm1.55-17Zm3.09,1.54Zm-4.64,0Zm-6.19,24.75Zm7.74-17Zm0-4.64Zm0-4.64Zm0-1.55Zm1.54,3.09Zm1.55,3.1h0Zm-10.83,18.56Zm13.92-23.2Zm-3.09-1.55Zm0,4.64Zm3.09-9.28Zm-13.92,27.84Zm0,0ZM466,413.67Zm3.09-7.73Zm-6.19,7.73Zm-1.54,0Zm-7.74,20.11ZM466,413.67Zm-3.1,0Z" transform="translate(-32.97 -129.14)"/><path id="安徽省" class="cls-8" d="M413.4,371.91l1.55,1.55L410.31,375l-3.1-3.1-3.09,1.55,1.55,1.55-3.1,6.18h-3.09v3.1l4.64,4.64,1.55-1.55,3.09,4.64-6.19,6.19,6.19,6.18L407.21,409l3.1,6.19h3.09v-3.09l3.09,6.18,3.1-4.64,9.28,6.19,4.64-4.64v-3.09l4.64-1.55,3.09-7.73-3.09-3.1-4.64,1.55v-3.09l-4.64-4.64,3.09-6.19,4.64-1.55-3.09-3.09v3.09h-3.1l-1.54-4.64h-3.1l1.55-4.64L413.4,365.73h-3.09Zm20.11,26.3ZM415,416.77Zm-10.83-27.84Z" transform="translate(-32.97 -129.14)"/><path id="福建省" class="cls-9" d="M435.05,463.17l-1.54-1.55h3.09v-3.09h3.09l3.1-7.74-1.55-3.09h3.09l-1.54,1.55,4.64-7.74-7.74-4.64L436.6,440l-3.09-3.1v-6.18h-3.1L418,436.87l1.55,4.64-6.19,4.64v6.19L408.76,457l-1.55,7.73,6.19,3.1,1.55-1.55,1.54,7.73,3.1,3.1,7.73-6.19v-3.09H432v-3.1Zm-4.64,4.64-1.54,1.54Zm9.28-6.19Zm0-4.64Zm4.64-4.64-1.54-1.55Zm-15.46,17Zm13.92-23.2Zm-15.47,21.66Zm15.47-15.47Zm-1.55,0h0Zm3.09-3.09v0ZM441.24,457Zm0-9.28h0Zm3.09,0Zm3.1-3.09h0Zm-1.55,1.54Zm-4.64,1.55Z" transform="translate(-32.97 -129.14)"/><path id="江西省" class="cls-8" d="M427.32,419.86l-7.73-4.64-3.1,3.09-3.09-6.18v3.09h-9.28l-6.19,3.09,1.55,1.55h-6.19L390.2,423l3.09,6.19-6.18,9.28,3.09,3.09v9.28h3.09l-3.09,7.74,7.73,1.54-6.18,6.19,1.54,1.55h6.19l3.09-3.1,3.1,3.1,1.54-1.55,3.1-12.37,3.09-1.55-1.55-1.55L418,438.42l12.37-7.73-4.64-9.28Z" transform="translate(-32.97 -129.14)"/><path id="山东省" class="cls-8" d="M411.85,365.73v-3.1l4.64-1.54,3.1,6.18,6.18-3.09,1.55,4.64,9.28-9.28,1.55,1.55,7.73-10.83-1.55-1.55,4.64,1.55,3.1-6.19L464.44,341l3.09-6.19h-9.28l-7.73-4.64-4.64,1.55-4.64,6.19h-3.09l-3.1-3.1,3.1-4.64-4.64-3.09-3.1,1.55-3.09-3.1h-3.09l-3.1,4.64H415l-12.38,13.92v9.28l6.19-3.09-10.83,9.28,7.74,6.19Zm38.67-37.12v0Zm0,0Zm1.55,17Zm-1.55-18.56Zm1.55-3.09Zm-6.19,29.38ZM449,328.61Zm1.55-3.1Zm6.19,7.74Zm0,0Zm0,0Zm-52.59,18.56Z" transform="translate(-32.97 -129.14)"/><path id="河南省" class="cls-10" d="M379.37,388.93h9.28l3.1,6.18,10.82,4.64,1.55-1.54,4.64-6.19-1.55-4.64H401l-1.55-4.64,7.73-10.83,3.1,3.1,4.64-1.55-1.55-4.64h-3.09v-3.09h-6.19L401,361.09h-3.1l10.83-10.83-6.19,3.09,1.55-4.64-4.64,1.55-9.28-3.09L384,358h-9.28v3.1l-15.46,6.18,6.19,10.83-1.55,1.55,6.18,7.73,6.19,3.09Zm9.28,1.54Z" transform="translate(-32.97 -129.14)"/><path id="湖北省" class="cls-10" d="M365.46,381.19l-13.92-1.54,3.09,3.09-1.55,1.55,4.64,1.54-6.18,3.1v6.18l6.18,6.19v3.09h-3.09L350,409l-4.64-1.54-3.09,3.09v6.19l1.54-1.55,3.1,3.09-1.55,1.55h3.09V423l3.1-6.18h9.28l1.54-4.64,13.92,6.18,6.19-3.09-1.55,1.55,3.09,3.09,3.1-4.64,1.54,7.73,4.64-3.09h6.19l-1.55-1.55,6.19-3.09h6.19l-3.1-6.19,1.55-4.64-4.64-4.64-12.37-4.64-3.1-6.18H373.19Zm-17,26.3Zm17-26.3Zm13.91,7.74Zm1.55,26.29Z" transform="translate(-32.97 -129.14)"/><path id="湖南省" class="cls-10" d="M373.19,466.26l1.54-4.64,6.19,3.09,3.09-6.18h6.19l3.09-6.19H390.2l1.55-4.64L390.2,440h-3.09v-3.1l6.18-6.18-6.18-9.28v-6.19l-4.64,4.64-1.55-4.64-3.09,3.09-6.19-4.64-1.55,1.55-9.27-3.09-1.55,4.64-3.09-1.55L350,418.31l-1.55,7.74,3.1,12.37h-3.1l-3.09,4.64h6.19L350,450.79l4.64,4.64,1.55-4.64v3.1h3.09l4.64-4.64,3.09,6.18,1.55-1.54-4.64,9.28,1.55,1.54,3.09-3.09,1.54,4.64,3.1-1.55Zm-21.65-20.11Z" transform="translate(-32.97 -129.14)"/><path id="广东省" class="cls-11" d="M387.11,489.46l1.54-4.64,3.1,3.09,13.92-4.64,4.64,1.55,7.73-7.73V470.9L415,467.81l1.54-1.55-9.28-3.09-1.54,4.64-3.1-3.1-3.09,3.1h-6.19l-1.54-1.55,6.18-6.19-1.54-1.54H384l-3.09,6.18-6.19-3.09-3.09,9.28,1.55,1.55-4.64,4.64v6.18l-15.47,12.38,1.55,13.91,6.19-3.09-3.1-6.18,4.64-3.1,1.55,1.55L382.47,491l1.54,1.54ZM418,478.63ZM380.92,494.1l-1.55,1.55Zm-3.09,1.55,1.54-1.55Zm15.46-3.1v0Zm-34,7.74,1.55-1.55Zm18.56-4.64Zm-17,4.64-3.1,1.54Zm27.83-7.74Zm0,0ZM384,494.1v0Zm6.19-6.19h0Zm3.09,4.64Zm-1.54,0ZM415,503.38h0Zm-32.48-9.28v0Zm-23.2,10.82Zm1.55-3.09Zm0,6.19Zm47.94-7.73Zm-1.55,1.54h0Zm0-17Zm0,0Z" transform="translate(-32.97 -129.14)"/><path id="广西壮族自治区" class="cls-11" d="M351.54,453.89l-4.64,1.54v3.1L345.35,457l-7.73,4.64H333L331.43,457l-1.55,4.64-1.54-1.55-6.19,3.1v3.09L316,463.17l-9.28,3.09,6.19,3.09v3.1h9.28v3.09l-4.64,4.64,3.09,3.09,7.74,1.55-3.1,3.09,1.55,4.64,10.83,4.64h15.46l3.1-4.64h3.09v-3.09h3.09v-3.09l6.19-3.1v-6.18l4.64-4.64v-6.19h-3.1l-1.54-4.64-3.09,3.09-1.55-1.54,4.64-7.74-3.09-6.18-7.74,4.64Zm-38.67,9.28v0Zm35.57,38.66Z" transform="translate(-32.97 -129.14)"/><path id="海南省" class="cls-11" d="M356.18,511.11H350l-6.19,6.19v6.18l3.1,3.1,4.64,1.54,9.28-4.64v-4.64l4.64-4.64-3.1-4.64h-4.64Zm161,29.33Zm4.58-23.82.76-1Zm-5.34,23.82ZM514.16,464Zm27.46,11.91v0ZM518,540.44v0ZM515.69,470v0Zm-.77-1Zm9.92,50.61,3-2-3,1Zm0-7.94.76,1Zm0,1ZM516.45,469Zm-.76-1Zm1.52,43.66Zm6.87,8.93h0Zm2.29-7.94ZM517.21,465h0Zm10.68,38.7h0Zm5.34,3Zm-5.34-1Zm-3.81,12.9h0Zm-18.31,2,.76-1Zm29-8.93h0Zm-16-40.69.76-1Zm0,40.69h0Zm8.39-10.92h0ZM518,469h0Zm18.31,34.73v0ZM518,465Zm-3.81,3h0Zm17.54,37.7Zm-3.81,9.93h0Zm-.76,1,.76-1Zm3-2,.76,1Zm-5.34,2Zm6.86-7.94Zm4.58,2Zm-13,1h0Zm4.58-11.91h0Zm0-2v0Zm1.53,3ZM514.92,468Zm9.92,43.66v0Zm-17.55,5.95h0ZM537,496.77ZM514.92,467h0Zm3.82,1Zm-3,2Zm9.15,35.72v0Zm3.81,9.93v0Zm7.63-8.93Zm-5.34-2Zm6.87-2ZM528.65,470ZM534,509.67Zm-9.91,0Zm3.81,9.93h0Zm-.76-17.86.76-1Zm14.49-1Zm-15.25,3Zm1.52-7h0Zm9.15,6Zm-27.46,13.89.77-1Zm4.58-3Zm16.78,0Zm-9.15,3Zm3.81-16.87Zm13.73,4Zm-13-32.75v0Zm-16,45.65Zm21.35-2v0Zm-16.78,5Zm0-7,.77,1Zm-5.34,5h0Zm8.39-5.95Zm18.31-5Zm-19.83,9.92ZM527.13,473Zm2.29,26.79ZM525.6,471ZM534,504.71Zm5.34-3Zm-10.68,19.84Zm-8.39-9.92Zm-5.34,6.94Zm2.29-6,.76-1Zm1.53,16.87Zm9.15-17.86Zm.76,5h0Zm-7.62-2Zm2.28,7.93ZM537,469Zm3.06,35.72Zm-157.63,11ZM527.13,471v0ZM390.2,518.84h0Zm129.3,14.65Zm-4.58-15.88Zm3.05-5.95Zm2.29,5.95Zm-1.52,12.9h0Zm0,0Zm12.2-47.63Zm-7.63,20.84ZM524.84,474Zm-4.58,60.53v0Zm-1.52-1h0Zm-.77-3Zm-.76-64.5Zm0,6.95v0Zm2.29,58.54Zm-.76-2Zm3-3Zm13-18.85Zm-5.34,11.91Zm-14.5-2ZM524.84,472Zm4.58-1Zm7.62,39.7ZM519.5,468ZM367,511.11Zm166.23-8.38Zm6.1-1ZM519.5,469Zm13.73,33.74Zm-14.49,5ZM527.89,473Zm11.44,26.79Zm2.29,0Zm-16,8.93h0Zm3-2v0Zm-9.91,21.83Z" transform="translate(-32.97 -129.14)"/><path id="重庆市" class="cls-12" d="M323.7,429.14l3.09-3.09v3.09l4.64-4.64,1.55,1.55,1.54-4.64,3.1,3.09,1.54-1.55,3.1,3.1-1.55,1.54h3.09v3.1l1.55-1.55v3.09h3.09L350,424.5l-1.55-4.64h-3.09l1.55-1.55-3.1-3.09-1.54,1.55v-6.19l3.09-3.09L350,409l4.64-4.64,1.55,1.55,1.54-4.64-15.46-10.83-3.1,12.38-3.09,3.09-1.55-1.55v3.1l-6.18,6.18L320.6,409l-3.09,3.1,1.55,1.54-4.64,4.64,6.18,6.19h3.1v4.64Zm24.74-21.65Zm-30.93,4.64Zm30.93-4.64Zm-18.56,6.18Z" transform="translate(-32.97 -129.14)"/><path id="四川省" class="cls-12" d="M278.84,441.51l-1.54,1.55,3.09,6.19,6.19,3.09,7.73-3.09-1.55-7.74,10.83-13.92h3.09l-1.54,1.55,3.09,6.19h3.09l1.55-3.1,1.55,4.64h6.18l3.1-3.09-4.64-1.55-1.55-4.64h6.19V424.5h-3.1l-6.18-6.19L320.6,409l7.74,4.64,6.18-6.18L333,405.94l6.18-3.09,3.1-12.38L337.62,392,333,387.38H323.7l-3.1-3.09H316l-3.09,3.09-4.64-1.55-3.09-3.09v-6.19L299,373.46,297.4,375l-3.09-6.19-6.19,3.09,1.55,4.64L285,381.19l-1.55-4.64-1.54,4.64-4.64-1.54,1.54,4.64-3.09,3.09h-6.19L268,382.74l-3.1,3.09-4.64-4.64h-3.09l-3.09-9.28-4.64-1.54L244.82,375l3.09,3.09-3.09,6.19L254.1,392v3.09l4.64,4.64h-3.1l4.64,13.92v15.47l1.55,1.55,3.09-6.19,4.64,6.19L268,432.23l3.09,3.1,3.09-1.55v3.09Zm44.86-29.38Zm6.18,0Zm-12.37,0Z" transform="translate(-32.97 -129.14)"/><path id="贵州省" class="cls-12" d="M350,429.14l-3.09,3.09-6.19-6.18V423l-4.64,1.55v-3.09H333l-1.55,4.64-1.55-1.55-4.64,4.64v0l-4.64-3.09-3.09,3.09,6.19,4.64-3.1,3.09L316,435.33,314.42,440H302L299,443.06l1.55,4.64,7.73,1.55L305.14,457l4.64,4.64-1.55,4.64,6.19-3.09,7.73,3.09v-3.09l6.19-3.1,1.54,1.55,1.55-4.64,1.55,4.64h6.18v-3.09l4.64,1.54V457l4.64,1.55L346.9,457H350l1.55-13.92h-6.19l6.19-6.19Zm1.55,15.47Zm0,1.54Z" transform="translate(-32.97 -129.14)"/><path id="云南省" class="cls-12" d="M314.42,436.87l-1.55-4.64-3.09,3.1-3.1-1.55v-6.19l-6.18,1.55,1.54,1.55H299v4.64l-6.19,6.18,1.55,7.74L285,452.34l-4.64-4.64-4.64-10.83-4.64-1.54-6.19-9.28-3.09,3.09,1.55,1.55h-3.1v-9.28l-1.54,4.64h-3.1l1.55,4.64-1.55,1.54-3.09-3.09L251,433.78l1.55,4.64,1.55-1.55,3.09,3.1v15.46H254.1l-6.19,7.74-1.55,9.28h9.28v3.09l3.1,6.19,1.54-1.55-1.54,1.55,4.64,1.54-3.1,6.19L268,491l3.09,6.18,6.19-3.09v3.09l6.18,3.1V487.91l6.19-3.09,4.64,3.09,3.09-3.09h12.38l1.54-4.64h6.19l4.64-4.64v-3.09h-9.28l1.55-1.55-7.74-4.64,3.1-3.09-3.1-6.19,3.1-7.73-3.1-3.1H300.5l3.09-6.18h10.83Z" transform="translate(-32.97 -129.14)"/><path id="西藏自治区" class="cls-12" d="M176.76,350.26l-3.09-3.09-15.47-1.55-12.37,3.09-1.55,4.64H135L127.27,358h-6.19l-4.64-4.64h-3.09l-6.19,6.19L101,356.45,94.79,358l-6.18,9.28H82.42L84,368.82l-4.64,3.09,6.18,12.38L84,388.93h-3.1v-3.1l-3.09,3.1V392l4.64,4.64v6.19l9.28,1.54v3.1l10.82,6.18,1.55-4.64h3.09l15.47,12.38,4.64-1.55,3.09,6.19,7.74,1.54-1.55,1.55,9.28,6.19v-3.1l3.09,3.1v-3.1l6.19,3.1,15.47-1.55L169,438.42l3.09,3.09,1.55-6.18,4.64-4.64,15.47,4.64v3.09h3.09l3.09,6.19h10.83l18.56-13.92h6.19l6.18,6.18,4.64-7.73,6.19,3.09v-3.09l3.09,3.09v-6.18h3.1l1.54-4.64v-7.74l-7.73-24.74-6.19-1.55-3.09,3.09,1.55,1.55-6.19,3.09,1.55,1.55L234,393.57l1.55,3.09H230.9l-3.1-6.19L226.26,392v-3.09l-6.19-3.1-6.19,3.1L181.4,378.1,178.31,375l1.55-1.55h-3.1Z" transform="translate(-32.97 -129.14)"/><path id="陕西省" class="cls-13" d="M359.27,365.73V341l3.09-6.19-1.54-7.73L367,314.69l-1.54-4.64-4.64,4.64-3.1-3.1v3.1l-4.64,1.54v3.1L346.9,324l-1.55,7.73-4.64,1.55-6.19-3.1-3.09,3.1v6.18l12.37,6.19V358h-7.73l-1.55,4.64-7.73-1.54-3.09,6.18h3.09l-3.09,6.19,1.54,1.55-6.18,3.09v6.19l-3.1-1.55,1.55,3.09h12.37l7.74,6.19,4.64-1.55,7.73,6.19,3.09-3.09-1.54-4.64,6.18-3.1-4.64-1.54,1.55-1.55-3.09-3.09,10.82,1.54,3.1-3.09-4.64-4.64,1.54-1.55Zm6.19,12.37Zm-44.86,7.73Z" transform="translate(-32.97 -129.14)"/><path id="甘肃省" class="cls-13" d="M325.24,353.35,323.7,358l-4.64-1.54v-3.1l-4.64-1.54V341l-4.64-4.64-1.55,1.55v-3.1l-10.83-4.64V324l7.74-6.19-3.1-6.19-7.73,4.64H283.48l1.55,4.64-9.28-3.09v-3.09l-4.64-4.64-7.73-3.1,6.18-4.64v-6.18l-4.64-1.55-7.73,4.64h-4.64v-4.64l-6.19-4.64,3.1-3.09-6.19-13.92-7.73,1.54-3.1,3.1,1.55,3.09-3.09,4.64h-6.19l-12.37,12.37-6.19,1.55L200,314.69h6.19l9.28,6.18,1.55-1.54,3.09,4.64h9.28l4.64,3.09,4.64-1.55v-3.09h3.09l-1.54-4.64,3.09-3.09,7.73,4.64,6.19-3.1,7.73,7.74,3.1,1.54v-3.09l10.82,7.73,7.74,1.55L285,333.25l4.64,4.64,4.64,13.92h-3.09l1.54,4.64-1.54-1.55L285,364.18l3.09,4.64-1.54,1.55h-6.19l-4.64-3.1-1.55,1.55,6.19,7.73,1.55-1.54v3.09H285v3.09l4.64-4.64-3.09-4.64,6.18-3.09,3.1,6.19,1.54-1.55,7.74,3.09v6.19l3.09,3.09H316v-3.09l1.55,1.55,3.09-3.1-3.09-3.09,7.73-1.55V361.09l10.83,1.54,1.55-4.64h6.18V345.62l-17-7.73-3.09,6.18,4.64,4.64v3.1Zm-4.64,3.1Zm-27.84-9.28Zm27.84,9.28Zm4.64-3.1Z" transform="translate(-32.97 -129.14)"/><path id="青海省" class="cls-13" d="M292.76,347.17l-3.09-7.74,1.55-1.54L285,331.7l-7.73-1.55-3.1-4.64L268,322.42l1.54,3.09L266.47,324l-7.73-7.74H254.1l-3.1,3.1-9.28-4.64v6.18l-6.18,6.19L230.9,324h-9.28l-3.1-4.64-3.09,1.54-7.73-3.09v-3.09l-26.3,7.73v3.09h3.1v6.19l6.18,6.19L186,342.53l3.1,3.09-1.55,4.64-7.73-3.09v3.09l-4.64,1.55h3.09L175.22,358v4.64h3.09l-1.55,10.83h3.1L178.31,375l7.73,6.18h6.19l21.65,7.74,6.19-3.1,6.19,3.1-1.55,1.54h3.09l3.1,6.19H234v-3.09l6.19,3.09-1.55-1.55,6.19-3.09-1.55-1.55,3.09-3.09-1.54-4.64,3.09-3.09-3.09-6.19,4.64-3.09,6.18,4.64,1.55,6.18h3.09l4.64,4.64,3.1-3.09,1.54,4.64h6.19l3.09-3.09-1.54-4.64,3.09,1.54,3.09-1.54v-3.1l-1.54,1.55V375l-1.55,1.54-6.19-6.18,13.92-1.55L285,362.63l3.09-6.18,4.64-1.55Z" transform="translate(-32.97 -129.14)"/><path id="宁夏回族自治区" class="cls-13" d="M331.43,337.89l3.09-9.28-9.28-3.1,4.64-7.73-1.54-4.64h-3.1l-4.64,4.64-3.09,13.92-12.37,3.09h3.09v3.1l1.55-1.55,4.64,4.64v9.28l9.28,9.28v-6.19l4.64-1.54v-3.1l-4.64-4.64,3.09-3.09-1.55-1.55ZM320.6,356.45Zm0,0Z" transform="translate(-32.97 -129.14)"/><path id="新疆维吾尔自治区" class="cls-13" d="M235.54,274.47l-9.28-20.1-1.55,1.54-18.56-10.82H190.68L186,240.45l3.1-7.73v-9.28l-7.74-12.38L172.12,208l-9.28-7.73v-3.1h-3.09l1.55-4.64H152v6.19l-3.1,3.09h-6.18l-1.55,3.1v15.46l-13.92,1.55-7.73-4.64-7.74,18.56,3.1,6.18h-9.28L91.7,246.63l3.09,3.1v6.18l4.64,10.83-4.64,4.64h3.1l-4.64,3.09,1.54,4.64-6.18,6.19-1.55-1.55L71.59,294.58,67,293l-6.18,6.19v3.09H54.58L53,299.22l-6.18,1.55-4.64,4.64-1.55-1.55-6.19,10.83,4.64,7.73,4.64-1.55,3.1,3.1-1.55,1.54,3.09,9.28-4.64,1.55v3.09h6.19l6.19,4.64,1.54,7.74,10.83,4.64h6.19l1.54,7.73L84,368.82l-1.55-1.55h6.19l7.73-10.82,9.28,3.09,9.28-6.19,3.09,3.1L128.82,358l6.18-4.64h9.28l1.55-4.64,12.37-3.09,29.39,4.64,1.55-4.64-3.1-3.09,4.64-4.64-6.18-6.19v-6.19h-3.1v-3.09L200,317.78l6.19-18.56,7.73-3.09,9.28-10.83h3.1v3.09l7.73-6.18v-7.74Z" transform="translate(-32.97 -129.14)"/><path id="台湾省" class="cls-8" d="M447.43,487.91l1.54,4.64h3.1v-6.18l4.64-4.64,4.64-18.56-3.1-3.1L449,467.81l-4.64,7.73,1.55,10.83Zm37.12-34Zm-10.83,1.54Zm-32.48,21.66h0Zm35.57-23.2Zm-37.12,23.2Zm0,1.54Zm0-3.09ZM461.35,457h0Zm-4.64,27.84Zm0,6.19h0Zm6.18-32.48Zm-24.74,21.65h0Zm9.28,9.28v0Z" transform="translate(-32.97 -129.14)"/><path id="香港特别行政区" class="cls-14" d="M391.75,487.91l-1.55,1.55,4.64-1.55Zm0,1.55Zm1.54-1.55Zm0,0Zm0,0Zm0,1.55Zm0-1.55Zm1.55,1.55Zm-1.55,0Z" transform="translate(-32.97 -129.14)"/><path id="澳门特别行政区" class="cls-14" d="M387.11,491Zm0-1.55Z" transform="translate(-32.97 -129.14)"/><path id="_100000_JD" data-name="100000_JD" class="cls-14" d="M466,478.63l3.09-10.82Zm-12.38,24.75,7.74-7.73-1.55-1.55Zm95.64-44.31,2.29-6ZM547,475.94v0Zm-1.52,22.82-.77,2L547,493.8l-.76,2ZM531.7,521.58l3.06-5ZM518,542.42l-2.28,1,4.57-2-1.52,1Zm-17.54-14.88v0Zm8.39-29.77-.76,1,1.52-6-.76,4Zm-1.53-22.83L505,470l1.52,4Z" transform="translate(-32.97 -129.14)"/><text class="cls-15" transform="translate(70.09 174.23)">新疆维吾尔自治区</text><text class="cls-16" transform="translate(113.14 277.58)">西藏自治区</text><text class="cls-16" transform="translate(189 226.54)">青海省</text><text class="cls-16" transform="translate(196.9 180.91)">甘肃省</text><text class="cls-16" transform="translate(290.72 164.73)">内蒙古自治区</text><text class="cls-16" transform="translate(467.46 96.62)">黑龙江省</text><text class="cls-16" transform="translate(452.35 139.11)">吉林省</text><text class="cls-16" transform="translate(426.05 161.1)">辽宁省</text><text class="cls-16" transform="translate(356.46 202.56)">河北省</text><text class="cls-16" transform="translate(375.79 173.18)">北京市</text><text class="cls-16" transform="translate(388.16 184.78)">天津市</text><text class="cls-16" transform="translate(381.2 221)">山东省</text><text class="cls-16" transform="translate(395.9 250.51)">江苏省</text><text class="cls-16" transform="translate(423.47 272.26)">上海市</text><text class="cls-16" transform="translate(403.63 296.14)">浙江省</text><text class="cls-16" transform="translate(381.98 329.39)">福建省</text><text class="cls-16" transform="translate(375.79 275.26)">安徽省</text><text class="cls-16" transform="translate(361.11 311.6)">江西省</text><text class="cls-16" transform="translate(347.95 355.68)">广东省</text><text class="cls-16" transform="translate(290.52 346.73)">广西壮族自治区</text><text class="cls-16" transform="translate(323.2 307.74)">湖南省</text><text class="cls-16" transform="translate(336.32 278.99)">湖北省</text><text class="cls-16" transform="translate(337.22 248.96)">河南省</text><text class="cls-16" transform="translate(329.39 221)">山西省</text><text class="cls-16" transform="translate(300.2 241.04)">陕西省</text><text class="cls-16" transform="translate(292.19 286.4)">重庆市</text><text class="cls-16" transform="translate(283.38 319.22)">贵州省</text><text class="cls-16" transform="translate(231.09 337.1)">云南省</text><text class="cls-16" transform="translate(242.83 277.86)">四川省</text><text class="cls-16" transform="translate(272.16 210.3)">宁夏回族自治区</text><text class="cls-16" transform="translate(313.92 392.45)">海南省</text><text class="cls-16" transform="translate(412.7 344.17)">台湾省</text><text class="cls-16" transform="translate(344.23 374.58)">澳门</text><text class="cls-16" transform="translate(363.42 369.6)">香港</text></svg>